<?xml version="1.0" encoding="utf-8"?>
<!-- Generator: Adobe Illustrator 21.0.0, SVG Export Plug-In . SVG Version: 6.00 Build 0)  -->
<svg version="1.1" id="Layer_1" xmlns="http://www.w3.org/2000/svg" xmlns:xlink="http://www.w3.org/1999/xlink" x="0px" y="0px"
	 viewBox="0 0 58 58" style="enable-background:new 0 0 58 58;" xml:space="preserve">
<style type="text/css">
	.st0{fill:#8C8C8C;stroke:#FFFFFF;stroke-width:4;}
	.st1{fill:#FFFFFF;}
	.st2{fill:#6C6D6D;stroke:#FFFFFF;stroke-width:4;}
</style>
<circle class="st0" cx="29" cy="-37" r="26.9"/>
<g>
	<path class="st1" d="M15.7-51.6c0.8,0.3,1.7,0.5,2.5,0.8c2,0.7,3.9,1.8,5.7,3c0.2,0.1,0.3,0.1,0.6,0.1c2.5-0.5,5-0.5,7.6-0.2
		c0.4,0,0.9,0.1,1.3,0.2c0.2,0,0.3,0,0.5-0.1c1.6-1.1,3.2-2,4.9-2.7c1-0.4,2.1-0.8,3.2-1c0.1,0,0.1,0,0.2,0c0.2,0.7,0.5,1.4,0.7,2.1
		c0.4,1.6,0.7,3.3,0.6,4.9c0,0.3-0.1,0.7-0.1,1c0,0.1,0,0.3,0.1,0.4c0.9,1.1,1.7,2.3,2.1,3.6c0.4,1.1,0.5,2.2,0.5,3.3
		c0,2.1-0.2,4.3-1,6.3c-1.2,3.1-3.3,5.2-6.3,6.4c-2.1,0.8-4.3,1.1-6.6,1.1c-2.6,0-5.2,0-7.8,0c-2.3-0.1-4.6-0.6-6.7-1.6
		c-2.5-1.3-4.2-3.3-5.1-5.9c-0.9-2.4-1.1-4.8-0.9-7.3c0.2-2.1,1-4,2.3-5.6c0.3-0.3,0.3-0.6,0.3-1c-0.1-0.9,0-1.9,0.1-2.9
		c0.2-1.7,0.6-3.3,1.2-4.8C15.7-51.5,15.7-51.5,15.7-51.6z M28.8-23.9c1.6-0.1,3.1-0.1,4.5-0.2c1.6-0.1,3.1-0.4,4.5-1.1
		c1.1-0.5,2.1-1.2,2.7-2.3c1.1-1.9,1.3-3.9,0.7-6c-0.4-1.4-1.2-2.5-2.5-3.2C38-37.2,37-37.4,36-37.4c-1.4,0-2.7,0-4.1,0.1
		c-2.3,0.2-4.5,0.1-6.8-0.1c-1.3-0.1-2.6-0.2-3.9,0c-2.7,0.2-4.4,2.4-4.8,4.6c-0.2,1.1-0.1,2.2,0.1,3.3c0.4,1.7,1.3,3,2.8,3.9
		c1.4,0.8,3,1.2,4.6,1.3C25.7-24.1,27.3-24,28.8-23.9z"/>
	<path class="st1" d="M20.6-31.2c0-0.9,0.2-1.8,0.9-2.5c1.1-1.2,2.5-1,3.3,0.3c1,1.5,0.9,3.1,0,4.6c-0.5,0.7-1.1,1.2-2.1,1
		c-0.6-0.1-1.1-0.5-1.5-1C20.8-29.5,20.6-30.3,20.6-31.2z"/>
	<path class="st1" d="M37.4-31c0,0.8-0.2,1.7-0.9,2.4c-1,1.2-2.5,1-3.3-0.3c-1-1.5-0.9-3.1,0-4.6c0.4-0.7,1.1-1.2,2-1
		c0.7,0.1,1.1,0.5,1.5,1.1C37.2-32.7,37.4-31.9,37.4-31z"/>
</g>
<circle class="st2" cx="29" cy="28.9" r="26.8"/>
<g>
	<path class="st1" d="M44,25c0,4.3,0,8.6,0,12.8c0,0.1-0.1,0.2-0.1,0.3c-0.2,3-2.7,5.3-5.9,5.3c-1.5,0-2.9,0-4.4,0
		c-4.6,0-9.2,0-13.8,0c-0.3,0-0.7,0-1-0.1c-2.8-0.5-4.8-2.8-4.8-5.6c0-3.3,0-6.7,0-10c0-0.2,0-0.4-0.1-0.6c0-0.7,0-1.4,0-2
		c0.1-0.3,0.4-0.3,0.6-0.3c2.5,0,5.1,0,7.6,0c0.1,0,0.3,0,0.4,0c-2.6,3.8-1.1,7.8,1.1,9.6c2.6,2.2,6.3,2.6,9.2,0.8
		c1.4-0.9,2.5-2,3.1-3.6c0.9-2.4,0.6-4.7-0.9-6.9c0.1,0,0.1,0,0.2,0c2.7,0,5.4,0,8.1,0C43.6,24.8,43.8,24.9,44,25z"/>
	<path class="st1" d="M44,19.9c0,1.3,0,2.6,0,3.9c-0.2,0-0.3,0.1-0.5,0.1c-2.9,0-5.8,0-8.6,0c-0.2,0-0.5-0.1-0.7-0.2
		c-3.1-2.7-7.4-2.6-10.3,0c-0.2,0.2-0.5,0.3-0.7,0.3c-2.9,0-5.7,0-8.6,0c-0.4,0-0.4-0.1-0.4-0.5c0-0.4,0-0.9-0.1-1.3
		c0-0.6,0-1.2,0-1.7c0-0.2,0.1-0.4,0.1-0.6c0.1-1.7,0.8-3.1,2.1-4.1c0.1-0.1,0.2-0.1,0.4-0.2c0,1.2,0,2.4,0,3.5c0,0.7,0,1.5,0,2.2
		c0,0.3,0.1,0.4,0.4,0.4c0.7,0,0.7,0,0.7-0.7c0-1.8,0-3.7,0-5.5c0-0.6,0.1-0.7,0.9-0.7c0,0.1,0,0.3,0,0.4c0,2,0,4,0,6
		c0,0.2,0.1,0.5,0.3,0.5c0.7,0.2,0.9,0,0.9-0.7c0-1.9,0-3.9,0-5.8c0-0.2,0.1-0.4,0.1-0.6c0.2,0,0.5,0,0.7,0c0,0.3,0.1,0.6,0.1,0.9
		c0,1.9,0,3.8,0,5.7c0,0.2,0.1,0.5,0.2,0.5c0.6,0.2,0.9,0,0.9-0.7c0-1.9,0-3.9,0-5.8c0-0.2,0-0.4,0.1-0.7c5.6,0,11.3,0,16.9,0
		c0.1,0,0.1,0.1,0.2,0.1c2.4,0.4,4.3,2.2,4.7,4.5C43.9,19.3,43.9,19.6,44,19.9z M36.2,19.3C36.2,19.3,36.2,19.3,36.2,19.3
		c0,0.2,0,0.5,0,0.7c0,0.3,0,0.5,0,0.8c0,0.6,0.3,1,1,1c1,0,2.1,0,3.1,0c0.6,0,0.9-0.3,1-0.9c0-1,0-2.1,0-3.1c0-0.6-0.3-0.9-0.9-0.9
		c-1,0-2.1,0-3.1,0c-0.7,0-1,0.3-1,1C36.1,18.3,36.2,18.8,36.2,19.3z"/>
	<path class="st1" d="M34.9,29c0,3.1-2.6,5.7-5.9,5.7c-3.3,0-5.9-2.5-5.9-5.7c0-3.1,2.7-5.7,5.9-5.7C32.3,23.4,34.9,25.9,34.9,29z
		 M29,33.2c2.3,0,4.3-1.8,4.4-4c0-2.4-1.8-4.3-4.2-4.4c-2.4,0-4.4,1.8-4.4,4.1C24.7,31.3,26.6,33.2,29,33.2z"/>
</g>
</svg>
